<svg width="20" height="21" viewBox="0 0 20 21" fill="none" xmlns="http://www.w3.org/2000/svg">
<path d="M15.5003 21C14.4183 21.0125 13.3927 20.518 12.7286 19.6637C12.0645 18.8093 11.8383 17.6935 12.1173 16.648L5.85734 13.07C4.77562 14.061 3.19002 14.2707 1.88782 13.5951C0.585628 12.9194 -0.15579 11.5022 0.0317029 10.0472C0.219196 8.59214 1.29566 7.4092 2.72661 7.0857C4.15756 6.76221 5.63819 7.36708 6.43334 8.59996L12.1163 5.35096C12.0428 5.07314 12.0038 4.78732 12.0003 4.49996C11.986 2.82667 13.1481 1.3731 14.7835 1.01878C16.4189 0.664462 18.0785 1.5067 18.758 3.03588C19.4375 4.56505 18.9503 6.36119 17.5913 7.33747C16.2323 8.31375 14.3746 8.20205 13.1423 7.06996L6.99134 10.585C6.98524 10.8443 6.949 11.102 6.88334 11.353L13.1423 14.93C14.2946 13.8725 16.0091 13.7093 17.3402 14.5303C18.6713 15.3513 19.295 16.9567 18.8672 18.461C18.4394 19.9653 17.0643 21.0023 15.5003 21ZM15.5003 16C14.6719 16 14.0003 16.6715 14.0003 17.5C14.0003 18.3284 14.6719 19 15.5003 19C16.3288 19 17.0003 18.3284 17.0003 17.5C17.0003 16.6715 16.3288 16 15.5003 16ZM3.50034 8.99996C2.67191 8.99996 2.00034 9.67153 2.00034 10.5C2.00034 11.3284 2.67191 12 3.50034 12C4.32876 12 5.00034 11.3284 5.00034 10.5C5.00034 9.67153 4.32876 8.99996 3.50034 8.99996ZM15.5003 2.99996C14.6719 2.99996 14.0003 3.67153 14.0003 4.49996C14.0003 5.32839 14.6719 5.99996 15.5003 5.99996C16.3288 5.99996 17.0003 5.32839 17.0003 4.49996C17.0003 3.67153 16.3288 2.99996 15.5003 2.99996Z" fill="#292D33"/>
</svg>
