<svg width="35" height="40" viewBox="0 0 35 40" fill="none" xmlns="http://www.w3.org/2000/svg">
<path d="M22.6288 2.91765C23.0189 3.38824 22.7751 4.09412 22.1899 4.23529C20.9706 4.61176 19.7514 5.03529 18.5322 5.50588C17.7519 5.78824 16.9228 5.78824 16.1425 5.50588C14.9233 5.03529 13.7041 4.61176 12.4849 4.23529C11.8996 4.04706 11.6558 3.34118 12.0459 2.91765C13.5578 1.22353 15.3622 0.0470588 17.2154 0H17.5081C19.3125 0.0470588 21.117 1.17647 22.6288 2.91765ZM2.68229 30.0706C2.29214 30.5412 1.51184 30.4471 1.26799 29.9294C0.43892 28.3765 0 26.8235 0 25.4118C0 24.8 0.0487689 24.1882 0.0975379 23.5765C0.146307 22.9647 0.829072 22.5882 1.4143 22.8235C2.92614 23.4824 4.43797 24.1882 5.94981 24.9882C6.53504 25.2706 6.58381 26.0235 6.14489 26.4471C4.92566 27.6235 3.75521 28.8471 2.68229 30.0706ZM14.4844 6.21176C14.9233 6.35294 14.9721 6.96471 14.5331 7.2C11.8509 8.47059 9.21733 9.97647 6.63258 11.6706C6.29119 11.9059 5.8035 11.5765 5.94981 11.2C6.04735 10.8235 6.19366 10.4471 6.33996 10.1176C6.87642 8.61176 7.55919 7.10588 8.29072 5.69412C8.6321 5.03529 9.41241 4.70588 10.1439 4.89412C11.5582 5.27059 13.0213 5.69412 14.4844 6.21176ZM10.973 37.3647C10.4853 37.9294 9.65625 38.1176 9.02226 37.7412C6.87642 36.5647 4.92566 34.9647 3.41383 33.1294C2.92614 32.5647 2.97491 31.7647 3.41383 31.2C4.63305 29.7882 5.90104 28.4235 7.26657 27.1059C7.80303 26.5882 8.6321 26.5412 9.2661 26.9176C11.3632 28.2353 13.4115 29.6471 15.3622 31.2C15.8987 31.6235 15.8987 32.3765 15.411 32.8471C13.8504 34.2588 12.3385 35.7647 10.973 37.3647ZM15.0208 17.9294C15.5573 18.2118 15.5573 18.9176 15.0696 19.2471C12.9725 20.6588 10.9242 22.1647 8.97349 23.8588C8.38826 24.3294 7.55919 24.4235 6.92519 24.0941C5.6572 23.3882 4.34044 22.7765 3.07244 22.1647C2.38968 21.8353 1.90199 21.1765 1.99953 20.4235C2.1946 18.4 2.68229 16.2824 3.31629 14.2588C3.51136 13.6 4.2429 13.2706 4.92566 13.5059C5.21828 13.6 5.51089 13.6941 5.85227 13.8353C8.92472 14.8706 12.0459 16.2353 15.0208 17.9294ZM31.9437 30.0706C32.3338 30.5412 33.1141 30.4471 33.358 29.9294C34.187 28.3765 34.626 26.8235 34.626 25.4118C34.626 24.8 34.5772 24.1882 34.5284 23.5765C34.4796 22.9647 33.7969 22.5882 33.2117 22.8235C31.6998 23.4824 30.1392 24.1882 28.6761 24.9882C28.0909 25.2706 28.0421 26.0235 28.4811 26.4471C29.7003 27.6235 30.8707 28.8471 31.9437 30.0706ZM20.1416 6.21176C19.7027 6.35294 19.6539 6.96471 20.0928 7.2C22.7751 8.47059 25.4086 9.97647 27.9934 11.6706C28.3348 11.9059 28.8224 11.5765 28.6761 11.2C28.5786 10.8235 28.4323 10.4471 28.286 10.1176C27.7495 8.61176 27.0668 7.10588 26.3352 5.69412C25.9939 5.03529 25.2135 4.70588 24.482 4.89412C23.0677 5.27059 21.6046 5.69412 20.1416 6.21176ZM19.6051 17.9294C19.0687 18.2118 19.0687 18.9176 19.5563 19.2471C21.6534 20.6588 23.7017 22.1647 25.6525 23.8588C26.2377 24.3294 27.0668 24.4235 27.7008 24.0941C28.9688 23.3882 30.2855 22.7765 31.5535 22.1647C32.2363 21.8353 32.724 21.1765 32.6264 20.4235C32.4314 18.4 31.9437 16.2824 31.3097 14.2588C31.1146 13.6 30.3831 13.2706 29.7003 13.5059C29.4077 13.6 29.1151 13.6941 28.7737 13.8353C25.7012 14.8706 22.6288 16.2353 19.6051 17.9294ZM17.313 40C15.7524 40 14.143 39.7647 12.5824 39.2471C11.9972 39.0588 11.8021 38.3529 12.1922 37.8824C13.509 36.4235 14.9233 35.0118 16.3864 33.6471C16.9228 33.1765 17.7519 33.1765 18.2884 33.6471C19.7514 35.0118 21.1657 36.4235 22.4825 37.8824C22.8726 38.3529 22.6776 39.0588 22.0923 39.2471C20.483 39.7647 18.8736 40 17.313 40ZM25.6037 37.7412C24.9697 38.1176 24.1406 37.9294 23.6529 37.3647C22.2874 35.8118 20.7756 34.3059 19.215 32.8471C18.7273 32.3765 18.7273 31.6235 19.2637 31.2C21.2145 29.6471 23.2628 28.1882 25.3599 26.9176C25.9939 26.5412 26.8229 26.5882 27.3594 27.1059C28.7249 28.4235 30.0417 29.7882 31.2121 31.2C31.6998 31.7647 31.6998 32.5647 31.2121 33.1294C29.7003 34.9176 27.7495 36.5176 25.6037 37.7412ZM18.2884 30.3529C17.7519 30.8235 16.9228 30.8235 16.3376 30.3529C14.3868 28.8 12.3385 27.3412 10.2415 25.9765C9.70502 25.6471 9.65625 24.8941 10.1439 24.4706C12.0947 22.8235 14.143 21.3176 16.2401 19.9529C16.8741 19.5294 17.7519 19.5294 18.3859 19.9529C20.5317 21.3176 22.58 22.8706 24.482 24.5176C24.9697 24.9412 24.9209 25.6471 24.3845 26.0235C22.2874 27.3412 20.2391 28.8 18.2884 30.3529ZM18.3859 17.1765C17.7031 17.5529 16.8741 17.5529 16.1913 17.1765C13.6553 15.6706 10.973 14.4 8.29072 13.3647C7.80303 13.1765 7.70549 12.5176 8.14441 12.1882C10.7292 10.4941 13.4115 9.03529 16.1425 7.81176C16.8741 7.48235 17.7519 7.48235 18.4834 7.81176C21.2145 9.03529 23.8968 10.4941 26.4815 12.1882C26.9205 12.4706 26.8717 13.1294 26.3352 13.3647C23.6529 14.4 21.0194 15.6706 18.3859 17.1765Z" fill="#1A8917"/>
</svg>
