<svg width="48" height="48" viewBox="0 0 48 48" fill="none" xmlns="http://www.w3.org/2000/svg">
<rect width="48" height="48" rx="24" fill="#F3F3F4"/>
<path d="M29.5003 34C28.4183 34.0125 27.3927 33.518 26.7286 32.6637C26.0645 31.8093 25.8383 30.6935 26.1173 29.648L19.8573 26.07C18.7756 27.061 17.19 27.2707 15.8878 26.5951C14.5856 25.9194 13.8442 24.5022 14.0317 23.0472C14.2192 21.5921 15.2957 20.4092 16.7266 20.0857C18.1576 19.7622 19.6382 20.3671 20.4333 21.6L26.1163 18.351C26.0428 18.0731 26.0038 17.7873 26.0003 17.5C25.986 15.8267 27.1481 14.3731 28.7835 14.0188C30.4189 13.6645 32.0785 14.5067 32.758 16.0359C33.4375 17.565 32.9503 19.3612 31.5913 20.3375C30.2323 21.3137 28.3746 21.202 27.1423 20.07L20.9913 23.585C20.9852 23.8443 20.949 24.102 20.8833 24.353L27.1423 27.93C28.2946 26.8725 30.0091 26.7093 31.3402 27.5303C32.6713 28.3513 33.295 29.9567 32.8672 31.461C32.4394 32.9653 31.0643 34.0023 29.5003 34ZM29.5003 29C28.6719 29 28.0003 29.6715 28.0003 30.5C28.0003 31.3284 28.6719 32 29.5003 32C30.3288 32 31.0003 31.3284 31.0003 30.5C31.0003 29.6715 30.3288 29 29.5003 29ZM17.5003 22C16.6719 22 16.0003 22.6715 16.0003 23.5C16.0003 24.3284 16.6719 25 17.5003 25C18.3288 25 19.0003 24.3284 19.0003 23.5C19.0003 22.6715 18.3288 22 17.5003 22ZM29.5003 16C28.6719 16 28.0003 16.6715 28.0003 17.5C28.0003 18.3284 28.6719 19 29.5003 19C30.3288 19 31.0003 18.3284 31.0003 17.5C31.0003 16.6715 30.3288 16 29.5003 16Z" fill="#292D33"/>
</svg>
